<svg class="btyb-juliet nav-element z-1 fixed" xmlns="http://www.w3.org/2000/svg" width="141.727" height="79.88" viewBox="0 0 141.727 79.88"><path d="M7340.045,83.652a21.4,21.4,0,0,1-3.879-.893,5.107,5.107,0,0,1-2.772-2.333,4.068,4.068,0,0,1,.135-3.151,3.32,3.32,0,0,1,.469-.8,2.587,2.587,0,0,1,.668-.608,1.952,1.952,0,0,1,.814-.285,1.716,1.716,0,0,1,.688.066,2.058,2.058,0,0,1,1.531,2.069,4.191,4.191,0,0,0,.527,1.634l.12.2a4.46,4.46,0,0,0,.861,1.019,4.546,4.546,0,0,0,1.273.788,4.807,4.807,0,0,0,1.865.315,8.34,8.34,0,0,0,3.794-.8,7.049,7.049,0,0,0,2.623-2.264,10.24,10.24,0,0,0,1.532-3.481,18.367,18.367,0,0,0,.5-4.427V35.085a2.863,2.863,0,0,0-.145-1,1.414,1.414,0,0,0-.4-.587,1.384,1.384,0,0,0-.615-.287,4.116,4.116,0,0,0-.788-.071,7.708,7.708,0,0,0-1.562.2,12.792,12.792,0,0,0-1.962.6,16.387,16.387,0,0,0-2.078.989,10.093,10.093,0,0,0-1.861,1.332,6.675,6.675,0,0,0-1.333,1.662,3.958,3.958,0,0,0-.516,1.977,3.616,3.616,0,0,0,.244,1.461,2.27,2.27,0,0,0,.559.818,1.476,1.476,0,0,0,.644.343,2.668,2.668,0,0,0,.473.071,2.488,2.488,0,0,0,1.176-.244,6.805,6.805,0,0,0,.831-.516q.371-.27.7-.516a1.249,1.249,0,0,1,.758-.244,1.933,1.933,0,0,1,.731.158,2.08,2.08,0,0,1,.717.5,2.865,2.865,0,0,1,.559.9,3.613,3.613,0,0,1,.229,1.36,4.143,4.143,0,0,1-.444,1.979,4.362,4.362,0,0,1-1.146,1.388,4.738,4.738,0,0,1-1.6.833,6.409,6.409,0,0,1-4.269-.2,5.433,5.433,0,0,1-1.877-1.3,5.6,5.6,0,0,1-1.174-1.947,6.979,6.979,0,0,1-.4-2.378,9.025,9.025,0,0,1,.716-3.626,10.272,10.272,0,0,1,1.964-2.966,13.263,13.263,0,0,1,2.922-2.305,19.14,19.14,0,0,1,3.624-1.647,24.367,24.367,0,0,1,4.068-.99,27.608,27.608,0,0,1,4.241-.328,11.865,11.865,0,0,1,3.654.443,4.882,4.882,0,0,1,1.919,1.077,2.5,2.5,0,0,1,.731,1.317,7.327,7.327,0,0,1,.113,1.146v33.7c0,2.6-.047,8.928-1.707,10.352-1.634,1.4-7.257,3.1-9.482,3.744-1.324.381-2.675.792-4.085,1.065l.008,0a13.67,13.67,0,0,1-3.424.363C7340.855,83.7,7340.321,83.677,7340.045,83.652Zm29.931-9.129a6.066,6.066,0,0,1-2.5-3.5c-.054-.158-.109-.317-.154-.482a9.483,9.483,0,0,1-.345-2.521V50.286c0-.173-.011-.358-.028-.559a2.069,2.069,0,0,0-.143-.574.965.965,0,0,0-1-.615,1.434,1.434,0,0,0-.958.386,7.649,7.649,0,0,0-.79.788l-.714-.6a16.954,16.954,0,0,1,1.073-1.332,9.517,9.517,0,0,1,1.561-1.39,9.05,9.05,0,0,1,2.106-1.1,7.525,7.525,0,0,1,2.65-.445,6.729,6.729,0,0,1,2.208.33,4.66,4.66,0,0,1,1.574.887,3.608,3.608,0,0,1,.947,1.319,4.214,4.214,0,0,1,.315,1.619V69.055a2.657,2.657,0,0,0,.129.816,2.6,2.6,0,0,0,.372.76,1.9,1.9,0,0,0,.617.559,1.745,1.745,0,0,0,.886.216,3.192,3.192,0,0,0,.769-.113c1.266-.366,3.016-.885,4.333-1.275V50.286c0-.173-.011-.358-.028-.559a1.928,1.928,0,0,0-.145-.574.961.961,0,0,0-1-.615,1.438,1.438,0,0,0-.96.386,8.447,8.447,0,0,0-.79.788l-.715-.6q.431-.6,1.075-1.332a9.358,9.358,0,0,1,1.561-1.39,8.982,8.982,0,0,1,2.106-1.1,7.533,7.533,0,0,1,2.619-.441l0,0,.021,0,.009,0a.194.194,0,0,1,.032,0,6.7,6.7,0,0,1,2.832.5,3.721,3.721,0,0,1,1.52,1.232,3.557,3.557,0,0,1,.587,1.561c.011.092.021.18.03.268.015.12.026.24.032.362.024.3.04.58.04.831V72.005a4.035,4.035,0,0,1-.129.9,2.147,2.147,0,0,1-.6,1,3.739,3.739,0,0,1-1.362.8,5.919,5.919,0,0,1-1.673.308l-.017.023c-.073,0-.135-.013-.208-.015-.165.006-.33.015-.508.015a6.365,6.365,0,0,1-2.378-.358,3.462,3.462,0,0,1-1.289-.846,2.142,2.142,0,0,1-.531-1c-.03-.156-.053-.3-.07-.424-3.3,1.047-8.141,2.549-9.508,2.8a3.3,3.3,0,0,1-.586.048A6.414,6.414,0,0,1,7369.977,74.523Zm45.368.161a3.458,3.458,0,0,1-1.289-.846,2.142,2.142,0,0,1-.531-1,4.517,4.517,0,0,1-.1-.831V49.885a2.655,2.655,0,0,0-.386-1.446,1.416,1.416,0,0,0-1.3-.617,1.838,1.838,0,0,0-.831.173,4.421,4.421,0,0,0-.747.486l-.6-.715a15.635,15.635,0,0,1,1.474-1.075,11.318,11.318,0,0,1,1.763-.932,12.793,12.793,0,0,1,2.033-.658,9.883,9.883,0,0,1,2.292-.259,6.766,6.766,0,0,1,2.894.5,3.721,3.721,0,0,1,1.52,1.232,3.557,3.557,0,0,1,.587,1.561,12.583,12.583,0,0,1,.1,1.461V72.005a4,4,0,0,1-.128.9,2.158,2.158,0,0,1-.6,1,3.739,3.739,0,0,1-1.362.8,7.112,7.112,0,0,1-2.406.33A6.365,6.365,0,0,1,7415.345,74.684Zm-15.666,0a3.306,3.306,0,0,1-1.275-.846,2.194,2.194,0,0,1-.516-1,4.552,4.552,0,0,1-.1-.831V35.042a2.655,2.655,0,0,0-.387-1.446,1.417,1.417,0,0,0-1.3-.617,2.079,2.079,0,0,0-.844.158,3.681,3.681,0,0,0-.762.473l-.572-.687a16.594,16.594,0,0,1,1.461-1.075,10.66,10.66,0,0,1,1.763-.932,13.35,13.35,0,0,1,2.048-.658,9.879,9.879,0,0,1,2.292-.257,6.771,6.771,0,0,1,2.895.5,3.709,3.709,0,0,1,1.517,1.232,3.548,3.548,0,0,1,.589,1.547,12.286,12.286,0,0,1,.1,1.446V72.062a3.747,3.747,0,0,1-.129.889,2.043,2.043,0,0,1-.6.974,3.835,3.835,0,0,1-1.375.788,7.236,7.236,0,0,1-2.419.33A6.358,6.358,0,0,1,7399.679,74.684Zm59.808-.071a5.712,5.712,0,0,1-2.062-1.176,5.886,5.886,0,0,1-1.448-2.005,7.007,7.007,0,0,1-.544-2.894l-.022-17.482-3.283.968v-2.7a17.784,17.784,0,0,0,2.943-1.69,18.248,18.248,0,0,0,4.2-4.252,16.929,16.929,0,0,0,2.75-6.563c0-.009,0-.019.005-.026h2.305v9.5l5.744-1.705q2.2-.633,1.99-1.377a.386.386,0,0,0-.383-.293c-.2-.011-.432-.034-.69-.069a2.106,2.106,0,0,1-.743-.248,1.31,1.31,0,0,1-.537-.831,1.632,1.632,0,0,1,.133-1.351,1.856,1.856,0,0,1,1.127-.8,1.83,1.83,0,0,1,.927-.043,1.963,1.963,0,0,1,.778.373,2.572,2.572,0,0,1,.6.677,3.369,3.369,0,0,1,.377.846,4.066,4.066,0,0,1-.214,3.147,4.652,4.652,0,0,1-3.015,2.013l-6.105,1.814V68.481a3.005,3.005,0,0,0,.572,2.106,2.1,2.1,0,0,0,1.576.585,2.3,2.3,0,0,0,1.375-.43,4.952,4.952,0,0,0,1.031-.973,6.043,6.043,0,0,0,.889-1.4l.889.4q-.431.917-1.019,2.007a7.967,7.967,0,0,1-4.012,3.581,9.478,9.478,0,0,1-3.71.63A7.909,7.909,0,0,1,7459.486,74.613Zm-24.657-.531a12.039,12.039,0,0,1-4.2-2.709,13.239,13.239,0,0,1-2.937-4.5,18.184,18.184,0,0,1-.444-11.087,15.353,15.353,0,0,1,1.791-3.926,14.6,14.6,0,0,1,2.635-3.067,16.438,16.438,0,0,1,3.167-2.191,15.594,15.594,0,0,1,3.4-1.319,13.885,13.885,0,0,1,7.034.015,8.242,8.242,0,0,1,2.622,1.232,5.125,5.125,0,0,1,1.563,1.789,4.67,4.67,0,0,1,.516,2.135,4.092,4.092,0,0,1-.112.93c-.011.1-.022.191-.034.293-.145,1.221-1.883,1.564-1.883,1.564l-4.9,1.279-7.466,2.15c-.007.148-.019.3-.022.446,0,.193-.005.358-.011.536-.021.366-.024.747-.015,1.129,0,.1,0,.208,0,.3l.013-.008a28.587,28.587,0,0,0,.335,3.256l.009.051,0,0a9.137,9.137,0,0,0,.2,1.043,11.67,11.67,0,0,0,.788,2.165,11.388,11.388,0,0,0,1.275,2.076,9.758,9.758,0,0,0,1.747,1.763,8.322,8.322,0,0,0,2.192,1.23,7.3,7.3,0,0,0,2.636.46,7.168,7.168,0,0,0,1.862-.229,7.44,7.44,0,0,0,1.6-.63,10.389,10.389,0,0,0,1.433-.932c.46-.353.917-.73,1.377-1.131l.715.687a19.308,19.308,0,0,1-1.69,1.949,13.721,13.721,0,0,1-2.493,1.992,14.353,14.353,0,0,1-3.41,1.547,14.714,14.714,0,0,1-4.439.615A13.506,13.506,0,0,1,7434.83,74.082Zm3.268-25.7a4.755,4.755,0,0,0-1.2,1.591,9.823,9.823,0,0,0-.747,2.221c-.152.694-.267,1.394-.358,2.1,1.429-.4,5.7-1.589,6.375-1.825a.911.911,0,0,0,.578-1.015c-.013-.073-.017-.139-.032-.214a.412.412,0,0,0-.011-.053l0-.015a6.281,6.281,0,0,0-.52-1.6,4.124,4.124,0,0,0-.943-1.29,1.992,1.992,0,0,0-1.377-.514A2.639,2.639,0,0,0,7438.1,48.381Zm-22.709-6.432a5.192,5.192,0,0,1-1.489-.846,3.81,3.81,0,0,1-1-1.247,3.387,3.387,0,0,1-.358-1.547,3.427,3.427,0,0,1,.358-1.532,3.91,3.91,0,0,1,1-1.275,5.013,5.013,0,0,1,1.489-.859,5.243,5.243,0,0,1,1.848-.315,5.164,5.164,0,0,1,1.819.315,4.8,4.8,0,0,1,1.477.859,4.024,4.024,0,0,1,.988,1.275,3.453,3.453,0,0,1,.358,1.532,3.412,3.412,0,0,1-.358,1.547,3.918,3.918,0,0,1-.988,1.247,4.97,4.97,0,0,1-1.477.846,5.164,5.164,0,0,1-1.819.313A5.243,5.243,0,0,1,7415.388,41.949Zm50.969-20.175a3.635,3.635,0,0,1-1.24-.73.669.669,0,0,1-.306-.561.51.51,0,0,1,.152-.375.486.486,0,0,1,.356-.135.857.857,0,0,1,.561.255,3.033,3.033,0,0,0,1.973.747,2.163,2.163,0,0,0,1.769-.765,3.141,3.141,0,0,0,.628-2.106V16.146a6.072,6.072,0,0,1-1.564,1.48,3.216,3.216,0,0,1-1.716.493,1.876,1.876,0,0,1-1.48-.613,2.363,2.363,0,0,1-.527-1.649v-5.2l-.782.306a.91.91,0,0,1-.407.1.666.666,0,0,1-.426-.137.5.5,0,0,1-.154-.39.462.462,0,0,1,.12-.308.662.662,0,0,1,.323-.219l1.514-.544a1.684,1.684,0,0,1,.458-.086.606.606,0,0,1,.426.154.569.569,0,0,1,.154.424v5.781a1.5,1.5,0,0,0,.255.951.876.876,0,0,0,.782.325q1.427,0,3.026-2.4v-4.59a.693.693,0,0,1,.169-.51.616.616,0,0,1,.885,0,.785.785,0,0,1,.152.51v8.126a4.461,4.461,0,0,1-.441,2.022,3.157,3.157,0,0,1-1.259,1.36,3.655,3.655,0,0,1-1.9.493A4.31,4.31,0,0,1,7466.357,21.773Zm-42.823,0a3.654,3.654,0,0,1-1.24-.73.67.67,0,0,1-.308-.561.511.511,0,0,1,.154-.375.483.483,0,0,1,.356-.135.865.865,0,0,1,.563.255,3.024,3.024,0,0,0,1.971.747,2.157,2.157,0,0,0,1.767-.765,3.134,3.134,0,0,0,.63-2.106V16.146a6.072,6.072,0,0,1-1.564,1.48,3.216,3.216,0,0,1-1.716.493,1.876,1.876,0,0,1-1.48-.613,2.363,2.363,0,0,1-.527-1.649v-5.2l-.782.306a.91.91,0,0,1-.407.1.661.661,0,0,1-.426-.137.5.5,0,0,1-.152-.39.46.46,0,0,1,.118-.308.662.662,0,0,1,.323-.219l1.514-.544a1.673,1.673,0,0,1,.459-.086.6.6,0,0,1,.424.154.576.576,0,0,1,.152.424v5.781a1.507,1.507,0,0,0,.257.951.877.877,0,0,0,.781.325q1.429,0,3.027-2.4v-4.59a.7.7,0,0,1,.168-.51.617.617,0,0,1,.886,0,.785.785,0,0,1,.152.51v8.126a4.436,4.436,0,0,1-.443,2.022,3.156,3.156,0,0,1-1.257,1.36,3.65,3.65,0,0,1-1.9.493A4.308,4.308,0,0,1,7423.534,21.773Zm-50.523,0a3.2,3.2,0,0,1-1.242-.73.732.732,0,0,1-.306-.561.511.511,0,0,1,.152-.375.592.592,0,0,1,.375-.135,1,1,0,0,1,.544.236,2.8,2.8,0,0,0,1.988.765,2.183,2.183,0,0,0,1.786-.765,3.185,3.185,0,0,0,.628-2.106V16.471a3.163,3.163,0,0,1-1.156.883,3.684,3.684,0,0,1-1.53.306,3.525,3.525,0,0,1-1.938-.544,3.691,3.691,0,0,1-1.343-1.478,4.707,4.707,0,0,1-.477-2.161,4.7,4.7,0,0,1,.477-2.159,3.554,3.554,0,0,1,3.314-2.022,3.287,3.287,0,0,1,1.581.373,3.53,3.53,0,0,1,1.208,1.054v-.306a.609.609,0,0,1,.458-.628l1.038-.358a1.92,1.92,0,0,1,.442-.084.644.644,0,0,1,.424.154.55.55,0,0,1,.171.407.524.524,0,0,1-.1.289.679.679,0,0,1-.291.2l-.833.272a.348.348,0,0,0-.2.137.639.639,0,0,0-.051.306v7.038a4.461,4.461,0,0,1-.443,2.022,3.159,3.159,0,0,1-1.258,1.36,3.651,3.651,0,0,1-1.9.493A4.437,4.437,0,0,1,7373.011,21.773Zm-.036-11.033a2.762,2.762,0,0,0-.951,1.1,3.6,3.6,0,0,0-.356,1.632,3.484,3.484,0,0,0,.356,1.615,2.508,2.508,0,0,0,2.363,1.5,2.5,2.5,0,0,0,1.836-.748,3.185,3.185,0,0,0,.85-1.971v-.782a3.317,3.317,0,0,0-.85-1.988,2.5,2.5,0,0,0-1.836-.748A2.625,2.625,0,0,0,7372.976,10.74Zm84.575,7.073a3.489,3.489,0,0,1-1.273-1.107v.647a.684.684,0,0,1-.154.476.644.644,0,0,1-.475.169h-1.259a.755.755,0,0,1-.493-.152.448.448,0,0,1-.171-.392.5.5,0,0,1,.171-.39.808.808,0,0,1,.493-.137h.816V6.117l-.8.289a.816.816,0,0,1-.39.1.661.661,0,0,1-.426-.137A.421.421,0,0,1,7453.42,6c0-.249.154-.431.459-.544l1.514-.544a1.655,1.655,0,0,1,.441-.086.53.53,0,0,1,.578.578v5.22a3.473,3.473,0,0,1,1.225-.987,3.662,3.662,0,0,1,1.564-.34,3.557,3.557,0,0,1,1.971.561,3.924,3.924,0,0,1,1.36,1.581,5.334,5.334,0,0,1,.477,2.311,5.157,5.157,0,0,1-.477,2.3,3.639,3.639,0,0,1-1.36,1.581,3.425,3.425,0,0,1-1.971.578A3.513,3.513,0,0,1,7457.55,17.814Zm.086-7.04a2.929,2.929,0,0,0-1,1.208,4.2,4.2,0,0,0-.356,1.767,4.093,4.093,0,0,0,.356,1.752,2.753,2.753,0,0,0,1,1.206,2.488,2.488,0,0,0,1.444.443,2.439,2.439,0,0,0,1.412-.443,2.857,2.857,0,0,0,.968-1.206,4.351,4.351,0,0,0,.339-1.752,4.549,4.549,0,0,0-.339-1.767,2.893,2.893,0,0,0-.968-1.208,2.468,2.468,0,0,0-1.412-.424A2.515,2.515,0,0,0,7457.637,10.774Zm-25.585,6.869a3.782,3.782,0,0,1-1.427-1.581,4.942,4.942,0,0,1-.51-2.313,5.109,5.109,0,0,1,.51-2.328,3.812,3.812,0,0,1,3.5-2.125,3.961,3.961,0,0,1,2.106.561,3.848,3.848,0,0,1,1.412,1.564,5.133,5.133,0,0,1,.508,2.328,4.966,4.966,0,0,1-.508,2.313,3.825,3.825,0,0,1-1.412,1.581,3.961,3.961,0,0,1-2.106.561A3.849,3.849,0,0,1,7432.052,17.643Zm.051-6.342a3.789,3.789,0,0,0-.766,2.448,3.791,3.791,0,0,0,.766,2.45,2.485,2.485,0,0,0,2.024.934,2.532,2.532,0,0,0,2.039-.934,3.791,3.791,0,0,0,.766-2.45,3.789,3.789,0,0,0-.766-2.448,2.532,2.532,0,0,0-2.039-.934A2.485,2.485,0,0,0,7432.1,11.3Zm-23.272,6.342a3.787,3.787,0,0,1-1.429-1.581,4.972,4.972,0,0,1-.51-2.313,5.14,5.14,0,0,1,.51-2.328,3.818,3.818,0,0,1,3.5-2.125,3.967,3.967,0,0,1,2.108.561,3.845,3.845,0,0,1,1.411,1.564,5.115,5.115,0,0,1,.51,2.328,4.948,4.948,0,0,1-.51,2.313,3.821,3.821,0,0,1-1.411,1.581,3.967,3.967,0,0,1-2.108.561A3.843,3.843,0,0,1,7408.83,17.643Zm.051-6.342a3.789,3.789,0,0,0-.765,2.448,3.79,3.79,0,0,0,.765,2.45,2.484,2.484,0,0,0,2.022.934,2.536,2.536,0,0,0,2.041-.934,3.79,3.79,0,0,0,.765-2.45,3.789,3.789,0,0,0-.765-2.448,2.536,2.536,0,0,0-2.041-.934A2.484,2.484,0,0,0,7408.881,11.3Zm-5.983,6.376a2.042,2.042,0,0,1-.527-1.514V10.588h-1.343a.708.708,0,0,1-.494-.154.452.452,0,0,1-.187-.39c0-.364.227-.544.681-.544h1.343V7.63a.646.646,0,0,1,.169-.476.591.591,0,0,1,.426-.188.607.607,0,0,1,.441.188.639.639,0,0,1,.17.476V9.5h1.955a.853.853,0,0,1,.51.135.464.464,0,0,1,.171.409.441.441,0,0,1-.171.39.734.734,0,0,1-.51.154h-1.955v5.44a1.276,1.276,0,0,0,.222.867.84.84,0,0,0,.7.255,2.583,2.583,0,0,0,1.36-.544,1.132,1.132,0,0,1,.508-.188.617.617,0,0,1,.392.137.463.463,0,0,1,.135.34.743.743,0,0,1-.407.595,3.573,3.573,0,0,1-1.021.51,3.072,3.072,0,0,1-1.054.2A2.047,2.047,0,0,1,7402.9,17.677Zm-11.392,0a2.05,2.05,0,0,1-.527-1.514V10.588h-1.343a.713.713,0,0,1-.493-.154.455.455,0,0,1-.186-.39c0-.364.227-.544.679-.544h1.343V7.63a.637.637,0,0,1,.171-.476.588.588,0,0,1,.426-.188.605.605,0,0,1,.44.188.637.637,0,0,1,.171.476V9.5h1.955a.859.859,0,0,1,.51.135.468.468,0,0,1,.168.409.444.444,0,0,1-.168.39.739.739,0,0,1-.51.154h-1.955v5.44a1.279,1.279,0,0,0,.221.867.839.839,0,0,0,.7.255,2.576,2.576,0,0,0,1.36-.544,1.148,1.148,0,0,1,.51-.188.615.615,0,0,1,.392.137.461.461,0,0,1,.135.34.742.742,0,0,1-.409.595,3.55,3.55,0,0,1-1.019.51,3.077,3.077,0,0,1-1.054.2A2.053,2.053,0,0,1,7391.506,17.677Zm-37.246-.034a3.782,3.782,0,0,1-1.427-1.581,4.942,4.942,0,0,1-.51-2.313,5.109,5.109,0,0,1,.51-2.328,3.812,3.812,0,0,1,3.5-2.125,3.961,3.961,0,0,1,2.106.561,3.848,3.848,0,0,1,1.412,1.564,5.133,5.133,0,0,1,.508,2.328,4.966,4.966,0,0,1-.508,2.313,3.825,3.825,0,0,1-1.412,1.581,3.961,3.961,0,0,1-2.106.561A3.849,3.849,0,0,1,7354.26,17.643Zm.051-6.342a3.789,3.789,0,0,0-.766,2.448,3.791,3.791,0,0,0,.766,2.45,2.485,2.485,0,0,0,2.024.934,2.532,2.532,0,0,0,2.039-.934,3.791,3.791,0,0,0,.766-2.45,3.789,3.789,0,0,0-.766-2.448,2.532,2.532,0,0,0-2.039-.934A2.485,2.485,0,0,0,7354.311,11.3Zm86.343,6.224a2.387,2.387,0,0,1-.544-1.668v-5.2l-.782.306a.916.916,0,0,1-.409.1.662.662,0,0,1-.424-.137.492.492,0,0,1-.154-.39.452.452,0,0,1,.12-.308.658.658,0,0,1,.323-.219l1.512-.544a1.7,1.7,0,0,1,.459-.086.609.609,0,0,1,.426.154.574.574,0,0,1,.152.424v5.781a1.516,1.516,0,0,0,.255.951.882.882,0,0,0,.782.325q1.429,0,3.025-2.4v-4.59a.694.694,0,0,1,.171-.51.614.614,0,0,1,.883,0,.775.775,0,0,1,.154.51v6.9h.833a.812.812,0,0,1,.493.137.5.5,0,0,1,.171.39.448.448,0,0,1-.171.392.759.759,0,0,1-.493.152h-1.292q-.678,0-.679-.645V16.062a6.286,6.286,0,0,1-1.581,1.547,3.139,3.139,0,0,1-1.683.51A1.992,1.992,0,0,1,7440.654,17.525Zm-77.792,0a2.387,2.387,0,0,1-.544-1.668v-5.2l-.782.306a.916.916,0,0,1-.409.1.66.66,0,0,1-.424-.137.49.49,0,0,1-.154-.39.452.452,0,0,1,.12-.308.658.658,0,0,1,.323-.219l1.512-.544a1.7,1.7,0,0,1,.459-.086.611.611,0,0,1,.426.154.576.576,0,0,1,.152.424v5.781a1.516,1.516,0,0,0,.255.951.882.882,0,0,0,.782.325q1.429,0,3.025-2.4v-4.59a.694.694,0,0,1,.171-.51.614.614,0,0,1,.883,0,.772.772,0,0,1,.154.51v6.9h.833a.812.812,0,0,1,.493.137.5.5,0,0,1,.171.39.448.448,0,0,1-.171.392.759.759,0,0,1-.493.152h-1.292c-.454,0-.679-.216-.679-.645V16.062a6.278,6.278,0,0,1-1.581,1.547,3.139,3.139,0,0,1-1.683.51A1.992,1.992,0,0,1,7362.862,17.525Zm23.069.475a.663.663,0,0,1-.459-.152.534.534,0,0,1,0-.782.751.751,0,0,1,.459-.137h.816V11.71q0-1.359-1.073-1.36-1.17,0-3.281,2.363v4.215h.835a.747.747,0,0,1,.458.137.523.523,0,0,1,.154.39.464.464,0,0,1-.154.392.7.7,0,0,1-.458.152h-2.874a.6.6,0,0,1-.443-.152.448.448,0,0,1-.169-.392.5.5,0,0,1,.169-.39.682.682,0,0,1,.443-.137h.833V6.1l-.8.306a.815.815,0,0,1-.39.1.577.577,0,0,1-.426-.154.423.423,0,0,1-.171-.373.483.483,0,0,1,.12-.325.858.858,0,0,1,.339-.2l1.514-.544a1.1,1.1,0,0,1,.44-.086.53.53,0,0,1,.578.578v5.935a9.283,9.283,0,0,1,1.82-1.564,3.017,3.017,0,0,1,1.581-.476,2.062,2.062,0,0,1,1.6.628,2.6,2.6,0,0,1,.561,1.786v5.218h.833a.753.753,0,0,1,.459.137.537.537,0,0,1,0,.782.662.662,0,0,1-.459.152Zm-40.41,0a.6.6,0,0,1-.441-.152.443.443,0,0,1-.171-.392.5.5,0,0,1,.171-.39.676.676,0,0,1,.441-.137h.833V10.605l-.763.289a.909.909,0,0,1-.443.135.555.555,0,0,1-.409-.152.408.408,0,0,1-.169-.358c0-.248.154-.43.458-.544l1.429-.508a1.156,1.156,0,0,1,.46-.086.606.606,0,0,1,.424.154.577.577,0,0,1,.154.424v1.071a4.216,4.216,0,0,1,1.172-1.326,2.254,2.254,0,0,1,1.242-.373,1.776,1.776,0,0,1,1.257.493,1.838,1.838,0,0,1,.527,1.275v.017a1.6,1.6,0,0,1-.272,1.019.906.906,0,0,1-.782.375.988.988,0,0,1-.679-.238.763.763,0,0,1-.272-.628,1.2,1.2,0,0,1,.2-.681,1.305,1.305,0,0,1,.508-.476.928.928,0,0,0-.525-.118,1.674,1.674,0,0,0-1.107.51,6.318,6.318,0,0,0-1.206,1.819v4.232h.833a.755.755,0,0,1,.459.137.531.531,0,0,1,.152.39.471.471,0,0,1-.152.392.708.708,0,0,1-.459.152Zm-10,0a.735.735,0,0,1-.476-.152.522.522,0,0,1-.186-.426.516.516,0,0,1,.186-.424.785.785,0,0,1,.476-.137h1.088V7.238h-1.088a.735.735,0,0,1-.476-.152.475.475,0,0,1-.186-.409.519.519,0,0,1,.186-.424.725.725,0,0,1,.476-.154h4.371a4.59,4.59,0,0,1,2.7.732,2.557,2.557,0,0,1,1.019,2.226,2.734,2.734,0,0,1-.458,1.564,2.9,2.9,0,0,1-1.394,1.054,2.922,2.922,0,0,1,1.683,1.155,3.413,3.413,0,0,1,.544,1.9,3.29,3.29,0,0,1-.409,1.6,3.1,3.1,0,0,1-1.292,1.208,4.7,4.7,0,0,1-2.159.458Zm2.364-1.139h2.176a2.8,2.8,0,0,0,1.973-.645,2.093,2.093,0,0,0,.662-1.581,2.223,2.223,0,0,0-.662-1.666,2.5,2.5,0,0,0-1.769-.63h-2.38Zm0-5.627h1.938a3.179,3.179,0,0,0,1.735-.493,1.693,1.693,0,0,0,.765-1.529,1.716,1.716,0,0,0-.681-1.514,3.091,3.091,0,0,0-1.733-.46h-2.023Z" transform="translate(-7332.637 -4.324)" /></svg>
