<svg xmlns="http://www.w3.org/2000/svg" xmlns:xlink="http://www.w3.org/1999/xlink" width="140" height="78.45" viewBox="0 0 140 78.45">
  <defs>
    <clipPath id="clip-path">
      <path id="mask" d="M7340.009,83.22a21.483,21.483,0,0,1-3.86-.887,5.082,5.082,0,0,1-2.757-2.322,4.048,4.048,0,0,1,.135-3.136,3.369,3.369,0,0,1,.465-.8,2.588,2.588,0,0,1,.666-.6,1.939,1.939,0,0,1,.811-.283,1.722,1.722,0,0,1,.683.066,2.049,2.049,0,0,1,1.523,2.057,4.2,4.2,0,0,0,.525,1.626c.042.068.079.133.12.2a4.4,4.4,0,0,0,.855,1.011,4.462,4.462,0,0,0,1.268.784,4.752,4.752,0,0,0,1.853.315,8.306,8.306,0,0,0,3.775-.8,7,7,0,0,0,2.609-2.253,10.153,10.153,0,0,0,1.525-3.462,18.2,18.2,0,0,0,.5-4.4V34.9a2.817,2.817,0,0,0-.145-1,1.4,1.4,0,0,0-.4-.585,1.357,1.357,0,0,0-.613-.285,4.06,4.06,0,0,0-.784-.071,7.565,7.565,0,0,0-1.553.2,12.79,12.79,0,0,0-1.953.6,16.23,16.23,0,0,0-2.067.985,9.98,9.98,0,0,0-1.853,1.324,6.733,6.733,0,0,0-1.326,1.654,3.931,3.931,0,0,0-.512,1.966,3.6,3.6,0,0,0,.242,1.455,2.287,2.287,0,0,0,.555.812,1.455,1.455,0,0,0,.642.341,2.442,2.442,0,0,0,.471.071,2.483,2.483,0,0,0,1.168-.242,6.535,6.535,0,0,0,.825-.514c.248-.18.48-.351.7-.512a1.233,1.233,0,0,1,.756-.242,1.953,1.953,0,0,1,.726.156,2.08,2.08,0,0,1,.713.5,2.89,2.89,0,0,1,.557.9,3.615,3.615,0,0,1,.227,1.354,4.146,4.146,0,0,1-.441,1.967,4.4,4.4,0,0,1-1.142,1.382,4.756,4.756,0,0,1-1.6.827,6.14,6.14,0,0,1-1.78.27,6.211,6.211,0,0,1-2.466-.471,5.426,5.426,0,0,1-1.868-1.3,5.536,5.536,0,0,1-1.167-1.937,6.882,6.882,0,0,1-.4-2.365,8.938,8.938,0,0,1,.712-3.607,10.09,10.09,0,0,1,1.953-2.95,13.171,13.171,0,0,1,2.907-2.294,19.118,19.118,0,0,1,3.6-1.639,24.384,24.384,0,0,1,4.047-.985,27.576,27.576,0,0,1,4.22-.328,11.741,11.741,0,0,1,3.635.443,4.823,4.823,0,0,1,1.909,1.069,2.477,2.477,0,0,1,.728,1.311,7.243,7.243,0,0,1,.113,1.14V67.827c0,2.584-.047,8.883-1.7,10.3-1.625,1.39-7.219,3.087-9.432,3.725-1.317.379-2.662.788-4.066,1.062l.01,0a13.616,13.616,0,0,1-3.4.359C7340.819,83.273,7340.284,83.245,7340.009,83.22Zm29.776-9.081a6.041,6.041,0,0,1-2.487-3.479c-.054-.158-.109-.315-.154-.48a9.453,9.453,0,0,1-.343-2.508V50.026c0-.171-.011-.356-.028-.555a1.945,1.945,0,0,0-.141-.57,1.1,1.1,0,0,0-.343-.443,1.08,1.08,0,0,0-.657-.171,1.426,1.426,0,0,0-.955.384,7.369,7.369,0,0,0-.784.784l-.71-.6a16.529,16.529,0,0,1,1.067-1.326,9.325,9.325,0,0,1,1.553-1.382,8.99,8.99,0,0,1,2.095-1.1,7.5,7.5,0,0,1,2.637-.443,6.716,6.716,0,0,1,2.2.328,4.657,4.657,0,0,1,1.566.883,3.577,3.577,0,0,1,.941,1.311,4.176,4.176,0,0,1,.315,1.611V68.7a2.7,2.7,0,0,0,.127.812,2.641,2.641,0,0,0,.37.756,1.914,1.914,0,0,0,.613.555,1.736,1.736,0,0,0,.883.214,3.153,3.153,0,0,0,.763-.111c1.258-.364,3-.88,4.312-1.27V50.026c0-.171-.011-.356-.03-.555a1.873,1.873,0,0,0-.143-.57,1.06,1.06,0,0,0-.341-.443,1.077,1.077,0,0,0-.656-.171,1.426,1.426,0,0,0-.955.384,7.753,7.753,0,0,0-.784.784l-.712-.6a16.126,16.126,0,0,1,1.071-1.326,9.246,9.246,0,0,1,1.551-1.382,8.926,8.926,0,0,1,2.1-1.1,7.507,7.507,0,0,1,2.6-.439l0,0,.021,0,.01,0a.183.183,0,0,1,.032,0,6.659,6.659,0,0,1,2.817.5,3.723,3.723,0,0,1,1.512,1.227,3.549,3.549,0,0,1,.585,1.553c.011.092.021.18.028.268q.026.177.034.36c.024.3.038.576.038.825V71.633a3.856,3.856,0,0,1-.129.9,2.121,2.121,0,0,1-.6,1,3.744,3.744,0,0,1-1.354.8,6.021,6.021,0,0,1-1.664.306l-.017.021c-.075,0-.135-.013-.208-.015-.164.007-.327.015-.5.015a6.307,6.307,0,0,1-2.367-.356,3.438,3.438,0,0,1-1.281-.84,2.14,2.14,0,0,1-.529-1c-.03-.154-.052-.293-.069-.42-3.282,1.041-8.1,2.536-9.458,2.781a3.3,3.3,0,0,1-.583.047A6.376,6.376,0,0,1,7369.785,74.138Zm45.135.159a3.447,3.447,0,0,1-1.283-.84,2.122,2.122,0,0,1-.527-1,4.481,4.481,0,0,1-.1-.827V49.627a2.649,2.649,0,0,0-.385-1.439,1.407,1.407,0,0,0-1.3-.613,1.829,1.829,0,0,0-.827.171,4.375,4.375,0,0,0-.741.486l-.6-.713a15.508,15.508,0,0,1,1.468-1.069,11.242,11.242,0,0,1,1.752-.927,12.533,12.533,0,0,1,2.023-.656,9.9,9.9,0,0,1,2.281-.257,6.732,6.732,0,0,1,2.879.5,3.723,3.723,0,0,1,1.512,1.227,3.573,3.573,0,0,1,.585,1.553,12.965,12.965,0,0,1,.1,1.454V71.633a3.84,3.84,0,0,1-.127.9,2.137,2.137,0,0,1-.6,1,3.743,3.743,0,0,1-1.354.8,7.109,7.109,0,0,1-2.4.326A6.3,6.3,0,0,1,7414.92,74.3Zm-15.586,0a3.281,3.281,0,0,1-1.268-.84,2.187,2.187,0,0,1-.514-1,4.458,4.458,0,0,1-.1-.827V34.863a2.651,2.651,0,0,0-.386-1.44,1.407,1.407,0,0,0-1.3-.613,2.054,2.054,0,0,0-.84.158,3.561,3.561,0,0,0-.756.471l-.57-.685a17.282,17.282,0,0,1,1.453-1.069,10.625,10.625,0,0,1,1.754-.927,13,13,0,0,1,2.037-.655,9.8,9.8,0,0,1,2.281-.257,6.726,6.726,0,0,1,2.879.5,3.705,3.705,0,0,1,1.512,1.225,3.55,3.55,0,0,1,.585,1.54,12.192,12.192,0,0,1,.1,1.439V71.691a3.7,3.7,0,0,1-.129.883,2.054,2.054,0,0,1-.6.97,3.851,3.851,0,0,1-1.369.784,7.227,7.227,0,0,1-2.408.326A6.31,6.31,0,0,1,7399.334,74.3Zm59.5-.071a5.666,5.666,0,0,1-2.052-1.168,5.874,5.874,0,0,1-1.438-2,6.933,6.933,0,0,1-.542-2.879l-.022-17.39-3.265.96V49.068a17.825,17.825,0,0,0,2.928-1.68,18.134,18.134,0,0,0,4.177-4.231,16.865,16.865,0,0,0,2.734-6.529c0-.009,0-.019.006-.026h2.293v9.453l5.715-1.7q2.191-.63,1.979-1.369a.38.38,0,0,0-.381-.291c-.2-.011-.43-.036-.687-.069a2.125,2.125,0,0,1-.739-.248,1.3,1.3,0,0,1-.533-.825,1.61,1.61,0,0,1,.133-1.345,1.849,1.849,0,0,1,1.12-.8,1.813,1.813,0,0,1,.922-.043,1.922,1.922,0,0,1,.773.371,2.553,2.553,0,0,1,.595.673,3.384,3.384,0,0,1,.375.842,4.049,4.049,0,0,1-.212,3.13,4.633,4.633,0,0,1-3,2l-6.075,1.806V68.127a2.986,2.986,0,0,0,.57,2.095,2.083,2.083,0,0,0,1.566.583,2.309,2.309,0,0,0,1.369-.426,5.069,5.069,0,0,0,1.026-.97,6.08,6.08,0,0,0,.883-1.4l.885.4q-.431.912-1.013,2a8.092,8.092,0,0,1-1.555,2.009,7.991,7.991,0,0,1-2.436,1.553,9.429,9.429,0,0,1-3.691.628A7.826,7.826,0,0,1,7458.834,74.226Zm-24.529-.527a12,12,0,0,1-4.177-2.693,13.217,13.217,0,0,1-2.922-4.475,18.109,18.109,0,0,1-.443-11.032,15.437,15.437,0,0,1,1.782-3.9,14.582,14.582,0,0,1,2.624-3.05,16.272,16.272,0,0,1,3.149-2.181,15.539,15.539,0,0,1,3.378-1.311,13.377,13.377,0,0,1,3.322-.443,13.218,13.218,0,0,1,3.676.458,8.174,8.174,0,0,1,2.609,1.225,5.069,5.069,0,0,1,1.553,1.782,4.646,4.646,0,0,1,.514,2.123,4.042,4.042,0,0,1-.11.925c-.011.1-.022.191-.034.291-.145,1.215-1.876,1.557-1.876,1.557l-4.867,1.273-7.429,2.138c-.005.146-.019.3-.022.445,0,.193-.006.356-.009.535-.021.364-.024.743-.017,1.122,0,.1,0,.208,0,.3l.013-.008a27.809,27.809,0,0,0,.336,3.239c.005.03.007.049.007.049h0a9.469,9.469,0,0,0,.2,1.037,11.833,11.833,0,0,0,.784,2.153,11.456,11.456,0,0,0,1.27,2.067,9.744,9.744,0,0,0,1.739,1.752,8.294,8.294,0,0,0,2.179,1.227,7.322,7.322,0,0,0,2.622.456,7.191,7.191,0,0,0,1.855-.227,7.384,7.384,0,0,0,1.594-.628,10.3,10.3,0,0,0,1.427-.927q.684-.526,1.367-1.125l.713.685a19.524,19.524,0,0,1-1.682,1.937,13.758,13.758,0,0,1-2.479,1.982,14.384,14.384,0,0,1-3.391,1.538,14.656,14.656,0,0,1-4.419.613A13.435,13.435,0,0,1,7434.306,73.7Zm3.249-25.567a4.727,4.727,0,0,0-1.2,1.581,9.875,9.875,0,0,0-.741,2.209c-.152.69-.264,1.386-.356,2.084,1.419-.4,5.667-1.581,6.343-1.816a.9.9,0,0,0,.572-1.009c-.011-.071-.017-.139-.03-.214a.423.423,0,0,0-.011-.051l0-.015a6.32,6.32,0,0,0-.516-1.589,4.107,4.107,0,0,0-.941-1.283,1.978,1.978,0,0,0-1.367-.512A2.619,2.619,0,0,0,7437.554,48.132Zm-22.591-6.4a5.086,5.086,0,0,1-1.481-.84,3.766,3.766,0,0,1-1-1.24,3.472,3.472,0,0,1,0-3.065,3.847,3.847,0,0,1,1-1.268,4.917,4.917,0,0,1,1.481-.855,5.239,5.239,0,0,1,1.838-.313,5.166,5.166,0,0,1,1.812.313,4.754,4.754,0,0,1,1.467.855,3.929,3.929,0,0,1,.982,1.268,3.472,3.472,0,0,1,0,3.065,3.845,3.845,0,0,1-.982,1.24,4.914,4.914,0,0,1-1.467.84,5.123,5.123,0,0,1-1.812.313A5.2,5.2,0,0,1,7414.963,41.731Zm51.03-19.958a3.654,3.654,0,0,1-1.24-.73.67.67,0,0,1-.308-.561.516.516,0,0,1,.154-.375.486.486,0,0,1,.358-.135.863.863,0,0,1,.561.255,3.024,3.024,0,0,0,1.971.746,2.166,2.166,0,0,0,1.769-.763,3.15,3.15,0,0,0,.628-2.108V16.147a6.071,6.071,0,0,1-1.564,1.48,3.216,3.216,0,0,1-1.716.493,1.879,1.879,0,0,1-1.48-.613,2.362,2.362,0,0,1-.527-1.649v-5.2l-.782.306a.905.905,0,0,1-.407.1.66.66,0,0,1-.426-.135.5.5,0,0,1-.152-.392.452.452,0,0,1,.118-.306.666.666,0,0,1,.322-.221l1.514-.544a1.745,1.745,0,0,1,.459-.084.611.611,0,0,1,.424.152.571.571,0,0,1,.154.426v5.78a1.507,1.507,0,0,0,.255.951.877.877,0,0,0,.782.324q1.426,0,3.025-2.4V10.027a.689.689,0,0,1,.171-.51.618.618,0,0,1,.883,0,.789.789,0,0,1,.154.51v8.127a4.46,4.46,0,0,1-.443,2.022,3.174,3.174,0,0,1-1.258,1.362,3.667,3.667,0,0,1-1.9.491A4.311,4.311,0,0,1,7465.993,21.773Zm-42.822,0a3.635,3.635,0,0,1-1.24-.73.67.67,0,0,1-.308-.561.508.508,0,0,1,.154-.375.483.483,0,0,1,.356-.135.857.857,0,0,1,.561.255,3.033,3.033,0,0,0,1.973.746,2.16,2.16,0,0,0,1.767-.763,3.139,3.139,0,0,0,.63-2.108V16.147a6.072,6.072,0,0,1-1.564,1.48,3.213,3.213,0,0,1-1.716.493,1.876,1.876,0,0,1-1.48-.613,2.353,2.353,0,0,1-.527-1.649v-5.2l-.782.306a.913.913,0,0,1-.409.1.659.659,0,0,1-.424-.135.494.494,0,0,1-.154-.392.445.445,0,0,1,.12-.306.657.657,0,0,1,.322-.221l1.512-.544a1.758,1.758,0,0,1,.459-.084.613.613,0,0,1,.426.152.578.578,0,0,1,.152.426v5.78a1.52,1.52,0,0,0,.255.951.881.881,0,0,0,.782.324q1.43,0,3.027-2.4V10.027a.7.7,0,0,1,.169-.51.62.62,0,0,1,.885,0,.789.789,0,0,1,.152.51v8.127a4.46,4.46,0,0,1-.441,2.022,3.174,3.174,0,0,1-1.258,1.362,3.672,3.672,0,0,1-1.9.491A4.309,4.309,0,0,1,7423.171,21.773Zm-50.523,0a3.2,3.2,0,0,1-1.242-.73.73.73,0,0,1-.306-.561.514.514,0,0,1,.152-.375.6.6,0,0,1,.375-.135.985.985,0,0,1,.544.238,2.806,2.806,0,0,0,1.99.763,2.183,2.183,0,0,0,1.784-.763,3.183,3.183,0,0,0,.63-2.108V16.469a3.164,3.164,0,0,1-1.157.885,3.669,3.669,0,0,1-1.528.306,3.525,3.525,0,0,1-1.939-.544,3.684,3.684,0,0,1-1.343-1.48,4.7,4.7,0,0,1-.477-2.159,4.7,4.7,0,0,1,.477-2.159,3.552,3.552,0,0,1,3.316-2.024,3.28,3.28,0,0,1,1.579.375,3.51,3.51,0,0,1,1.208,1.054v-.306a.612.612,0,0,1,.459-.63l1.037-.356a1.912,1.912,0,0,1,.441-.084.659.659,0,0,1,.426.152.556.556,0,0,1,.17.409.538.538,0,0,1-.1.289.692.692,0,0,1-.289.2l-.833.272a.361.361,0,0,0-.2.135.65.65,0,0,0-.051.306v7.039a4.435,4.435,0,0,1-.442,2.022,3.171,3.171,0,0,1-1.257,1.362,3.671,3.671,0,0,1-1.9.491A4.454,4.454,0,0,1,7372.647,21.773Zm-.034-11.032a2.731,2.731,0,0,0-.953,1.1,3.6,3.6,0,0,0-.356,1.632,3.489,3.489,0,0,0,.356,1.615,2.521,2.521,0,0,0,2.363,1.5,2.5,2.5,0,0,0,1.836-.748,3.169,3.169,0,0,0,.85-1.971v-.782a3.309,3.309,0,0,0-.85-1.99,2.5,2.5,0,0,0-1.836-.748A2.612,2.612,0,0,0,7372.614,10.741Zm84.574,7.073a3.5,3.5,0,0,1-1.275-1.107v.647a.693.693,0,0,1-.152.476.648.648,0,0,1-.477.169h-1.258a.749.749,0,0,1-.491-.152.443.443,0,0,1-.171-.392.5.5,0,0,1,.171-.39.8.8,0,0,1,.491-.137h.816V6.116l-.8.291a.808.808,0,0,1-.39.1.655.655,0,0,1-.426-.137.423.423,0,0,1-.169-.373c0-.249.152-.431.458-.544l1.514-.544a1.723,1.723,0,0,1,.442-.084.53.53,0,0,1,.578.578v5.218a3.469,3.469,0,0,1,1.225-.985,3.647,3.647,0,0,1,1.562-.341,3.544,3.544,0,0,1,1.973.563,3.912,3.912,0,0,1,1.36,1.581,5.333,5.333,0,0,1,.477,2.311,5.161,5.161,0,0,1-.477,2.3,3.66,3.66,0,0,1-1.36,1.581,3.43,3.43,0,0,1-1.973.578A3.527,3.527,0,0,1,7457.188,17.814Zm.086-7.039a2.921,2.921,0,0,0-1,1.208,4.2,4.2,0,0,0-.358,1.767,4.093,4.093,0,0,0,.358,1.752,2.757,2.757,0,0,0,1,1.206,2.5,2.5,0,0,0,1.444.443,2.445,2.445,0,0,0,1.411-.443,2.848,2.848,0,0,0,.97-1.206,4.342,4.342,0,0,0,.339-1.752,4.54,4.54,0,0,0-.339-1.767,2.885,2.885,0,0,0-.97-1.208,2.461,2.461,0,0,0-1.411-.426A2.515,2.515,0,0,0,7457.274,10.775Zm-25.586,6.868a3.8,3.8,0,0,1-1.427-1.581,4.953,4.953,0,0,1-.51-2.313,5.128,5.128,0,0,1,.51-2.329,3.821,3.821,0,0,1,3.5-2.125,3.951,3.951,0,0,1,2.108.563,3.85,3.85,0,0,1,1.41,1.562,5.121,5.121,0,0,1,.51,2.329,4.947,4.947,0,0,1-.51,2.313,3.843,3.843,0,0,1-1.41,1.581,3.966,3.966,0,0,1-2.108.561A3.849,3.849,0,0,1,7431.688,17.643Zm.051-6.341a3.78,3.78,0,0,0-.763,2.448,3.78,3.78,0,0,0,.763,2.448,2.484,2.484,0,0,0,2.024.936,2.532,2.532,0,0,0,2.041-.936,3.784,3.784,0,0,0,.765-2.448,3.784,3.784,0,0,0-.765-2.448,2.537,2.537,0,0,0-2.041-.936A2.489,2.489,0,0,0,7431.738,11.3Zm-23.272,6.341a3.808,3.808,0,0,1-1.429-1.581,4.971,4.971,0,0,1-.51-2.313,5.147,5.147,0,0,1,.51-2.329,3.815,3.815,0,0,1,1.429-1.562,3.777,3.777,0,0,1,2.075-.563,3.943,3.943,0,0,1,2.106.563,3.855,3.855,0,0,1,1.413,1.562,5.153,5.153,0,0,1,.51,2.329,4.977,4.977,0,0,1-.51,2.313,3.849,3.849,0,0,1-1.413,1.581,3.958,3.958,0,0,1-2.106.561A3.845,3.845,0,0,1,7408.466,17.643Zm.051-6.341a3.781,3.781,0,0,0-.765,2.448,3.781,3.781,0,0,0,.765,2.448,2.481,2.481,0,0,0,2.024.936,2.528,2.528,0,0,0,2.039-.936,3.781,3.781,0,0,0,.765-2.448,3.781,3.781,0,0,0-.765-2.448,2.533,2.533,0,0,0-2.039-.936A2.487,2.487,0,0,0,7408.517,11.3Zm-5.985,6.375a2.05,2.05,0,0,1-.527-1.514V10.587h-1.343a.724.724,0,0,1-.494-.152.458.458,0,0,1-.186-.392q0-.543.679-.544h1.343V7.63a.642.642,0,0,1,.17-.476.591.591,0,0,1,.426-.186.6.6,0,0,1,.441.186.642.642,0,0,1,.171.476V9.5h1.954a.841.841,0,0,1,.51.137.46.46,0,0,1,.17.407.444.444,0,0,1-.17.392.744.744,0,0,1-.51.152h-1.954v5.441a1.283,1.283,0,0,0,.221.867.838.838,0,0,0,.7.255,2.58,2.58,0,0,0,1.361-.544,1.111,1.111,0,0,1,.508-.188.6.6,0,0,1,.392.137.461.461,0,0,1,.135.339.743.743,0,0,1-.407.595,3.54,3.54,0,0,1-1.02.51,3.073,3.073,0,0,1-1.054.2A2.055,2.055,0,0,1,7402.532,17.677Zm-11.39,0a2.049,2.049,0,0,1-.525-1.514V10.587h-1.345a.724.724,0,0,1-.494-.152.458.458,0,0,1-.186-.392q0-.543.679-.544h1.345V7.63a.649.649,0,0,1,.168-.476.591.591,0,0,1,.426-.186.6.6,0,0,1,.441.186.642.642,0,0,1,.17.476V9.5h1.955a.841.841,0,0,1,.51.137.46.46,0,0,1,.17.407.444.444,0,0,1-.17.392.744.744,0,0,1-.51.152h-1.955v5.441a1.282,1.282,0,0,0,.222.867.84.84,0,0,0,.7.255,2.58,2.58,0,0,0,1.359-.544,1.111,1.111,0,0,1,.508-.188.6.6,0,0,1,.392.137.463.463,0,0,1,.137.339.746.746,0,0,1-.409.595,3.54,3.54,0,0,1-1.02.51,3.073,3.073,0,0,1-1.054.2A2.055,2.055,0,0,1,7391.142,17.677Zm-37.247-.034a3.808,3.808,0,0,1-1.427-1.581,4.952,4.952,0,0,1-.51-2.313,5.127,5.127,0,0,1,.51-2.329,3.821,3.821,0,0,1,3.5-2.125,3.954,3.954,0,0,1,2.108.563,3.854,3.854,0,0,1,1.411,1.562,5.127,5.127,0,0,1,.51,2.329,4.952,4.952,0,0,1-.51,2.313,3.848,3.848,0,0,1-1.411,1.581,3.97,3.97,0,0,1-2.108.561A3.85,3.85,0,0,1,7353.9,17.643Zm.051-6.341a3.78,3.78,0,0,0-.763,2.448,3.78,3.78,0,0,0,.763,2.448,2.484,2.484,0,0,0,2.024.936,2.532,2.532,0,0,0,2.041-.936,3.78,3.78,0,0,0,.763-2.448,3.78,3.78,0,0,0-.763-2.448,2.537,2.537,0,0,0-2.041-.936A2.489,2.489,0,0,0,7353.946,11.3Zm86.344,6.221a2.37,2.37,0,0,1-.543-1.665v-5.2l-.782.306a.915.915,0,0,1-.409.1.668.668,0,0,1-.425-.135.5.5,0,0,1-.152-.392.455.455,0,0,1,.118-.306.673.673,0,0,1,.325-.221l1.512-.544a1.751,1.751,0,0,1,.459-.084.617.617,0,0,1,.426.152.58.58,0,0,1,.152.426v5.78a1.523,1.523,0,0,0,.255.951.882.882,0,0,0,.782.324q1.429,0,3.027-2.4V10.027a.7.7,0,0,1,.168-.51.619.619,0,0,1,.884,0,.778.778,0,0,1,.153.51v6.9h.833a.808.808,0,0,1,.493.137.5.5,0,0,1,.171.39.448.448,0,0,1-.171.392.755.755,0,0,1-.493.152h-1.292c-.452,0-.679-.216-.679-.645V16.062a6.319,6.319,0,0,1-1.581,1.547,3.141,3.141,0,0,1-1.684.51A1.986,1.986,0,0,1,7440.291,17.523Zm-77.792,0a2.367,2.367,0,0,1-.544-1.665v-5.2l-.784.306a.905.905,0,0,1-.407.1.664.664,0,0,1-.426-.135.5.5,0,0,1-.152-.392.452.452,0,0,1,.118-.306.675.675,0,0,1,.322-.221l1.514-.544a1.758,1.758,0,0,1,.459-.084.608.608,0,0,1,.424.152.573.573,0,0,1,.154.426v5.78a1.52,1.52,0,0,0,.255.951.881.881,0,0,0,.782.324q1.43,0,3.027-2.4V10.027a.7.7,0,0,1,.169-.51.618.618,0,0,1,.883,0,.778.778,0,0,1,.154.51v6.9h.833a.808.808,0,0,1,.493.137.5.5,0,0,1,.171.39.448.448,0,0,1-.171.392.755.755,0,0,1-.493.152h-1.292q-.678,0-.679-.645V16.062a6.319,6.319,0,0,1-1.581,1.547,3.14,3.14,0,0,1-1.684.51A1.984,1.984,0,0,1,7362.5,17.523Zm23.067.476a.662.662,0,0,1-.458-.152.534.534,0,0,1,0-.782.75.75,0,0,1,.458-.137h.815V11.711q0-1.362-1.071-1.362-1.173,0-3.28,2.363v4.216h.833a.756.756,0,0,1,.46.137.532.532,0,0,1,.154.39.471.471,0,0,1-.154.392.708.708,0,0,1-.46.152h-2.871a.6.6,0,0,1-.443-.152.444.444,0,0,1-.17-.392.5.5,0,0,1,.17-.39.679.679,0,0,1,.443-.137h.833V6.1l-.8.308a.814.814,0,0,1-.392.1.572.572,0,0,1-.426-.154.424.424,0,0,1-.169-.373.473.473,0,0,1,.118-.323.847.847,0,0,1,.342-.2l1.511-.544a1.15,1.15,0,0,1,.443-.084.528.528,0,0,1,.578.578v5.932a9.34,9.34,0,0,1,1.819-1.564,3.017,3.017,0,0,1,1.581-.476,2.064,2.064,0,0,1,1.6.63,2.6,2.6,0,0,1,.561,1.786v5.218h.833a.755.755,0,0,1,.459.137.538.538,0,0,1,0,.782.667.667,0,0,1-.459.152Zm-40.409,0a.6.6,0,0,1-.443-.152.448.448,0,0,1-.168-.392.5.5,0,0,1,.168-.39.683.683,0,0,1,.443-.137h.833V10.6l-.763.289a.9.9,0,0,1-.443.137.55.55,0,0,1-.409-.154.406.406,0,0,1-.169-.356c0-.249.152-.431.458-.544l1.429-.51a1.187,1.187,0,0,1,.458-.084.615.615,0,0,1,.426.152.573.573,0,0,1,.154.426V11.03A4.221,4.221,0,0,1,7348.3,9.7a2.246,2.246,0,0,1,1.242-.373,1.774,1.774,0,0,1,1.257.491,1.852,1.852,0,0,1,.529,1.275v.017a1.619,1.619,0,0,1-.272,1.02.912.912,0,0,1-.784.375,1,1,0,0,1-.679-.238.765.765,0,0,1-.272-.63,1.184,1.184,0,0,1,.2-.679,1.283,1.283,0,0,1,.51-.476.937.937,0,0,0-.529-.12,1.673,1.673,0,0,0-1.1.51A6.311,6.311,0,0,0,7347.2,12.7v4.233h.833a.753.753,0,0,1,.459.137.529.529,0,0,1,.152.39.469.469,0,0,1-.152.392.706.706,0,0,1-.459.152Zm-10,0a.728.728,0,0,1-.476-.152.577.577,0,0,1,0-.851.79.79,0,0,1,.476-.135h1.088V7.24h-1.088a.729.729,0,0,1-.476-.154.468.468,0,0,1-.187-.407.515.515,0,0,1,.188-.426.729.729,0,0,1,.476-.154h4.368a4.586,4.586,0,0,1,2.7.731,2.557,2.557,0,0,1,1.021,2.228,2.71,2.71,0,0,1-.459,1.562,2.889,2.889,0,0,1-1.394,1.054,2.909,2.909,0,0,1,1.682,1.157,3.389,3.389,0,0,1,.544,1.9,3.287,3.287,0,0,1-.407,1.6,3.1,3.1,0,0,1-1.292,1.206,4.684,4.684,0,0,1-2.159.46Zm2.361-1.138h2.178a2.79,2.79,0,0,0,1.971-.647,2.083,2.083,0,0,0,.664-1.579,2.226,2.226,0,0,0-.664-1.667,2.507,2.507,0,0,0-1.769-.628h-2.38Zm0-5.627h1.939a3.188,3.188,0,0,0,1.733-.493,1.69,1.69,0,0,0,.765-1.53,1.724,1.724,0,0,0-.679-1.514,3.093,3.093,0,0,0-1.735-.458h-2.024Z" transform="translate(-7286 674.025)" fill="#c9a0ee" stroke="rgba(0,0,0,0)" stroke-miterlimit="10" stroke-width="1"/>
    </clipPath>
    <clipPath id="clip-bytb-juliet">
      <rect width="140" height="78.45"/>
    </clipPath>
  </defs>
  <g id="bytb-juliet" clip-path="url(#clip-bytb-juliet)">
    <rect width="140" height="78.45" fill="#fff"/>
    <g id="btyb-juliet" transform="translate(-47.137 -678.848)" clip-path="url(#clip-path)">
      <rect id="hover" width="141" height="80" transform="translate(-93.863 678.851)" fill="#840c4a"/>
      <rect id="default" width="141" height="80" transform="translate(47.137 678.851)" fill="#c9a0ee"/>
    </g>
  </g>
</svg>
