<svg id="h4c-logo" xmlns="http://www.w3.org/2000/svg" width="140.727" height="57.205" viewBox="0 0 140.727 57.205">
	<path d="M7762.138,684.868a17.3,17.3,0,0,1-4.485-.528,10.093,10.093,0,0,1-3.128-1.338,7.4,7.4,0,0,1-1.919-1.919,6.953,6.953,0,0,1-1.023-2.157,8.557,8.557,0,0,1-.27-2.146v-.6a8.844,8.844,0,0,1,.258-2.167,6.522,6.522,0,0,1,1.025-2.114,7.127,7.127,0,0,1,1.983-1.876,10.906,10.906,0,0,1,3.3-1.293,20.455,20.455,0,0,1,4.8-.507h.841a24.5,24.5,0,0,1,4.927.44,12.041,12.041,0,0,1,3.276,1.08,6.233,6.233,0,0,1,1.878,1.532,4.916,4.916,0,0,1,.937,1.618,5.858,5.858,0,0,1,.239,1.52v.021h-6.385a1.482,1.482,0,0,0-.139-.379,2.35,2.35,0,0,0-.442-.5,3.025,3.025,0,0,0-.853-.55,7.034,7.034,0,0,0-1.5-.411,12.635,12.635,0,0,0-2.263-.182q-5.546,0-5.543,3.967v.237a3.664,3.664,0,0,0,1.359,2.879,6.193,6.193,0,0,0,4.139,1.176,13.2,13.2,0,0,0,2.158-.162,7.7,7.7,0,0,0,1.563-.4,5.314,5.314,0,0,0,1.013-.518,2.109,2.109,0,0,0,.583-.516.77.77,0,0,0,.16-.411H7763V675.53h11.881v9.035h-3.857a8.441,8.441,0,0,0-.755-2.22q-2.289,2.523-7.634,2.523Zm-96.555,0a19.521,19.521,0,0,1-4.951-.561,10.48,10.48,0,0,1-3.31-1.391,7.013,7.013,0,0,1-1.919-1.974,6.68,6.68,0,0,1-.949-2.113,9.277,9.277,0,0,1-.215-2.028v-.624a9.742,9.742,0,0,1,.2-2.028,7.03,7.03,0,0,1,2.805-4.02,10.493,10.493,0,0,1,3.319-1.359,20.291,20.291,0,0,1,5.015-.55h.841a24.211,24.211,0,0,1,3.678.258,15.065,15.065,0,0,1,2.8.669,9.589,9.589,0,0,1,2.007.982,6.22,6.22,0,0,1,1.369,1.154,5.592,5.592,0,0,1,.808,1.238,4.887,4.887,0,0,1,.411,1.176,5.5,5.5,0,0,1,.1,1.013v.282h-6.361q-.733-2.459-5.283-2.459-5.369,0-5.369,3.752v.258a3.736,3.736,0,0,0,.248,1.357,4.033,4.033,0,0,0,.82,1.273,3.848,3.848,0,0,0,1.68.992,8.469,8.469,0,0,0,2.643.366,10.018,10.018,0,0,0,2.351-.246,5.916,5.916,0,0,0,1.53-.55,2.93,2.93,0,0,0,.864-.755,2.836,2.836,0,0,0,.409-.647c.043-.129.086-.272.129-.432h6.339v.346a5.555,5.555,0,0,1-.215,1.5,5.392,5.392,0,0,1-.949,1.725,7.058,7.058,0,0,1-1.888,1.682,11.024,11.024,0,0,1-3.255,1.219,21.33,21.33,0,0,1-4.863.5Zm110.432-.3V668.522h17.747v3.924h-11.708v2.007h11.474v3.9h-11.474v2.2h11.881v4.01Zm-32.4,0-10.048-9.725v9.725h-6.082V668.522h6.858l9.314,9.121v-9.121h6.083v16.043Zm-23.594,0-1.251-2.586H7709.6l-1.23,2.586h-6.21l7.936-16.043h8.239l8.388,16.043Zm-8.542-6.6h5.329l-2.7-5.52Zm-16.176,6.6v-6.1h-10.026v6.1h-6.126V668.522h6.126v5.671H7695.3v-5.671h6.1v16.043Zm13.16-19.286a17.224,17.224,0,0,1-4.485-.53,10.05,10.05,0,0,1-3.126-1.336,7.342,7.342,0,0,1-1.919-1.919,6.952,6.952,0,0,1-1.025-2.156,8.569,8.569,0,0,1-.27-2.146v-.6a8.75,8.75,0,0,1,.26-2.167,6.454,6.454,0,0,1,1.023-2.115,7.128,7.128,0,0,1,1.983-1.876,10.908,10.908,0,0,1,3.3-1.293,20.476,20.476,0,0,1,4.8-.507h.841a24.345,24.345,0,0,1,4.927.442,12.155,12.155,0,0,1,3.278,1.078,6.248,6.248,0,0,1,1.876,1.532,4.971,4.971,0,0,1,.939,1.618,5.857,5.857,0,0,1,.237,1.52v.022h-6.385a1.47,1.47,0,0,0-.139-.378,2.3,2.3,0,0,0-.442-.507,3.076,3.076,0,0,0-.851-.55,7.092,7.092,0,0,0-1.5-.411,12.629,12.629,0,0,0-2.265-.182q-5.539,0-5.541,3.967v.237a3.664,3.664,0,0,0,1.359,2.879,6.2,6.2,0,0,0,4.141,1.176,13.43,13.43,0,0,0,2.156-.16,7.822,7.822,0,0,0,1.563-.4,5.311,5.311,0,0,0,1.013-.516,2.13,2.13,0,0,0,.583-.518.773.773,0,0,0,.163-.409h-5.629V655.94h11.883v9.035h-3.859a8.372,8.372,0,0,0-.755-2.22q-2.286,2.523-7.634,2.523Zm36.975-.3V648.918h48.531v16.057Zm21.064-11.447a6.052,6.052,0,0,0-1.191.305,3.552,3.552,0,0,0-.845.46,2.652,2.652,0,0,0-.569.552,2.563,2.563,0,0,0-.331.608,2.917,2.917,0,0,0-.167.6,4.036,4.036,0,0,0-.039.565v.26a4.014,4.014,0,0,0,.039.565,3,3,0,0,0,.167.6,2.577,2.577,0,0,0,.331.616,2.723,2.723,0,0,0,.569.561,3.574,3.574,0,0,0,.845.469,5.909,5.909,0,0,0,1.191.307,9.675,9.675,0,0,0,1.576.117h.392a9.675,9.675,0,0,0,1.576-.117,5.775,5.775,0,0,0,1.186-.307,3.6,3.6,0,0,0,.843-.469,2.822,2.822,0,0,0,.569-.561,2.577,2.577,0,0,0,.331-.616,2.856,2.856,0,0,0,.165-.6,4.014,4.014,0,0,0,.039-.565v-.26a4.036,4.036,0,0,0-.039-.565,2.783,2.783,0,0,0-.165-.6,2.509,2.509,0,0,0-.334-.608,2.848,2.848,0,0,0-.569-.552,3.5,3.5,0,0,0-.843-.46,6.016,6.016,0,0,0-1.191-.305,9.614,9.614,0,0,0-1.566-.115h-.392A9.688,9.688,0,0,0,7766.5,653.529Zm12.2,4.254a1.5,1.5,0,0,1,1.013.272,1.1,1.1,0,0,1,.3.847v.757a.522.522,0,0,0,.078.338h2.52v-.043a1.641,1.641,0,0,1-.122-.73v-.957a1.447,1.447,0,0,0-.356-1,1.8,1.8,0,0,0-.974-.534,2.208,2.208,0,0,0,.413-.149,2.108,2.108,0,0,0,.419-.26,1.219,1.219,0,0,0,.342-.434,1.372,1.372,0,0,0,.131-.6v-.1q0-1.661-2.721-1.659h-5.872V660h2.469v-2.214ZM7755.732,660h2.441v-2.486h4.476v-1.588h-4.476v-.808h4.569v-1.581h-7.01Zm-32.4,4.978V648.932h17.749v3.926h-11.708v2h11.472v3.9h-11.472v2.2h11.881v4.01Zm-31.462,0-1.252-2.586h-9.166l-1.229,2.586h-6.21l7.936-16.043h8.239l8.387,16.043Zm-8.542-6.6h5.328l-2.7-5.52Zm-28.937,6.6V648.932h13.369q7.611,0,7.611,5.3v.344q0,5.372-7.611,5.371h-7.247v5.023Zm6.122-9.035h6.514q2.027,0,2.026-1.467v-.065q0-1.464-2.026-1.465h-6.514Zm106.584,2.285a1.7,1.7,0,0,1-.735-.4,1.6,1.6,0,0,1-.348-.5,1.447,1.447,0,0,1-.1-.544v-.1a1.45,1.45,0,0,1,.1-.534,1.472,1.472,0,0,1,.342-.483,1.741,1.741,0,0,1,.731-.372,4.306,4.306,0,0,1,1.182-.139,4.23,4.23,0,0,1,1.164.139,1.775,1.775,0,0,1,.733.372,1.521,1.521,0,0,1,.354.483,1.377,1.377,0,0,1,.1.534v.123a1.453,1.453,0,0,1-.1.542,1.593,1.593,0,0,1-.35.5,1.709,1.709,0,0,1-.733.385,4.177,4.177,0,0,1-1.168.145A4.1,4.1,0,0,1,7767.1,658.225Zm9.243-2.007v-1.113h2.832c.5,0,.745.184.745.548v.008q0,.557-.745.557Zm-43.209-10.907a24.084,24.084,0,0,1-3.912-.291,14.508,14.508,0,0,1-2.956-.767,8.811,8.811,0,0,1-2.1-1.164,6.86,6.86,0,0,1-1.412-1.391,6.51,6.51,0,0,1-.82-1.532,7.312,7.312,0,0,1-.409-1.5,9.8,9.8,0,0,1-.1-1.4v-.646a9.8,9.8,0,0,1,.1-1.4,7.158,7.158,0,0,1,.409-1.487,6.365,6.365,0,0,1,.82-1.51,6.808,6.808,0,0,1,1.412-1.369,8.836,8.836,0,0,1,2.1-1.144,15.1,15.1,0,0,1,2.956-.753,23.866,23.866,0,0,1,3.912-.292h.972a23.755,23.755,0,0,1,3.893.292,15.132,15.132,0,0,1,2.954.753,8.558,8.558,0,0,1,2.091,1.144,7.118,7.118,0,0,1,1.413,1.369,6.118,6.118,0,0,1,.831,1.51,7.128,7.128,0,0,1,.409,1.487,9.728,9.728,0,0,1,.1,1.4v.646a9.728,9.728,0,0,1-.1,1.4,7.281,7.281,0,0,1-.409,1.5,6.49,6.49,0,0,1-.819,1.532,6.815,6.815,0,0,1-1.413,1.391,8.832,8.832,0,0,1-2.091,1.164,14.281,14.281,0,0,1-2.946.767,24.063,24.063,0,0,1-3.912.291Zm-2.457-11.99a4.3,4.3,0,0,0-1.813.927,3.283,3.283,0,0,0-1.1,2.523v.258a3.5,3.5,0,0,0,.26,1.348,3.915,3.915,0,0,0,.862,1.252,4.256,4.256,0,0,0,1.821.982,10.211,10.211,0,0,0,2.9.366,10.44,10.44,0,0,0,2.9-.356,4.23,4.23,0,0,0,1.823-.958,3.87,3.87,0,0,0,.863-1.242,3.58,3.58,0,0,0,.258-1.346v-.3a3.429,3.429,0,0,0-.258-1.326,3.633,3.633,0,0,0-.875-1.2,4.377,4.377,0,0,0-1.823-.927,10.646,10.646,0,0,0-2.889-.344A10.831,10.831,0,0,0,7730.677,633.321ZM7654.4,645.012V628.953h39.031v16.059Zm121.614,0V628.965h17.747v3.924h-11.708V634.9h11.472v3.9h-11.472V641h11.881v4.01Zm-8.31,0V635l-5.627,10.005h-3.127L7753.344,635v10.005h-5.974V628.965h8.411l4.916,9.015,5-9.015h8.065v16.043Zm-53.959,0v-6.1h-10.026v6.1h-6.125V628.965h6.125v5.671h10.026v-5.671h6.1v16.043Z" transform="translate(-7654.239 -628.664)" fill="#c9a0ee"	/>
</svg>
